<svg width="104" height="104" viewBox="0 0 104 104" fill="none" xmlns="http://www.w3.org/2000/svg">
<path d="M25.1743 67.3057L25.5289 67.6733C30.1802 72.4944 36.1315 76.0108 42.8062 77.6932L43.6574 77.9077L43.0387 78.5304L31.8188 89.8237L31.2174 90.4291L30.9833 89.6085L28.5231 80.9843L25.1743 67.3057ZM25.1743 67.3057L24.8143 67.668M25.1743 67.3057L24.8143 67.668M24.8143 67.668L17.1958 75.3364L16.6176 75.9184M24.8143 67.668L16.6176 75.9184M16.6176 75.9184L17.3999 76.1656M16.6176 75.9184L17.3999 76.1656M17.3999 76.1656L26.6982 79.1031C27.1324 79.2403 27.5265 79.4836 27.845 79.8118C28.1634 80.1399 28.3964 80.5424 28.5229 80.9837L17.3999 76.1656ZM78.082 67.3058L78.4419 67.668L86.0605 75.3364L86.6386 75.9183L85.8565 76.1655L76.5624 79.1031L76.5623 79.1031C76.1281 79.2403 75.7341 79.4836 75.4155 79.8118C75.0971 80.1399 74.8641 80.5424 74.7376 80.9837L78.082 67.3058ZM78.082 67.3058L77.7274 67.6732C73.0763 72.4934 67.128 76.0111 60.4543 77.6932L59.6032 77.9077L60.2218 78.5304L71.4417 89.8237L72.0432 90.4291L72.2773 89.6085L74.7374 80.9843L78.082 67.3058ZM21.5247 62.9182V62.7658L21.4397 62.6394C17.5086 56.7871 15.2084 49.7415 15.2084 42.1633C15.2084 21.9505 31.5567 5.5 51.6303 5.5C71.7039 5.5 88.0521 21.9505 88.0521 42.1633C88.0521 49.7415 85.7519 56.7871 81.8208 62.6394L81.7359 62.7658V62.9182V62.9224V63.1286L81.8812 63.2749L93.7586 75.2257C94.0943 75.5634 94.338 75.9829 94.4659 76.4436C94.5938 76.9044 94.6015 77.3907 94.4883 77.8554C94.375 78.32 94.1448 78.7471 93.82 79.0955C93.4952 79.4439 93.087 79.7018 92.6349 79.8446L92.7856 80.3214L92.6349 79.8446L79.8836 83.8752L79.6273 83.9562L79.5535 84.2147L76.0497 96.4899C75.9168 96.9549 75.6657 97.3767 75.3217 97.7137C74.9777 98.0506 74.5526 98.2911 74.0886 98.4118C73.6246 98.5325 73.1374 98.5293 72.675 98.4024C72.2127 98.2756 71.7908 98.0295 71.4512 97.6881C71.4512 97.6881 71.4511 97.688 71.4511 97.688L52.8164 78.9314L52.6651 78.7791L52.4504 78.784C52.3108 78.7871 52.1735 78.7971 52.0504 78.806L52.0108 78.8088C51.8729 78.8187 51.7509 78.8265 51.6303 78.8265C51.5029 78.8265 51.3744 78.8187 51.2311 78.8089C51.2163 78.8079 51.2012 78.8069 51.1859 78.8058C51.0589 78.797 50.9188 78.7873 50.7767 78.784L50.5247 78.7781L50.3701 78.9771C50.2957 79.0728 50.2153 79.1634 50.1292 79.2484L50.126 79.2517L31.8095 97.688C31.8094 97.688 31.8094 97.6881 31.8093 97.6881C31.4697 98.0295 31.0479 98.2756 30.5856 98.4024C30.1232 98.5293 29.636 98.5325 29.172 98.4118C28.7079 98.2911 28.2829 98.0506 27.9389 97.7137C27.5948 97.3767 27.3438 96.9549 27.2108 96.4899L23.707 84.2147L23.6333 83.9562L23.3769 83.8752L10.6257 79.8446L10.6256 79.8446C10.1735 79.7018 9.76531 79.4439 9.44056 79.0955C9.11579 78.7471 8.88549 78.32 8.77225 77.8554C8.659 77.3907 8.66672 76.9044 8.79465 76.4436C8.92257 75.9829 9.16628 75.5634 9.50188 75.2257L21.3793 63.2749L21.5247 63.1286V62.9224V62.9182ZM51.8445 27.5013L51.8451 27.5011C52.0501 27.432 52.2661 27.3905 52.487 27.3718C53.1337 27.317 53.7866 27.4932 54.3273 27.8846C55.0463 28.4067 55.474 29.2458 55.474 30.1399V54.1867C55.474 55.7259 54.2375 56.9658 52.7162 56.9658C51.1949 56.9658 49.9584 55.7259 49.9584 54.1867V34.6871V33.9907L49.2985 34.2133L47.0715 34.9648L47.0703 34.9652C45.6353 35.4534 44.0662 34.6657 43.5829 33.2063C43.0996 31.7471 43.8851 30.1718 45.3288 29.6874L51.8445 27.5013ZM82.5365 42.1633C82.5365 24.9487 68.741 11.0582 51.6303 11.0582C34.5196 11.0582 20.724 24.9487 20.724 42.1633C20.724 59.3779 34.5196 73.2683 51.6303 73.2683C68.741 73.2683 82.5365 59.3779 82.5365 42.1633ZM29.3666 39.4241C30.0877 38.6983 31.065 38.2911 32.0834 38.2911C33.1018 38.2911 34.0791 38.6983 34.8002 39.4241C35.5214 40.15 35.9272 41.1353 35.9272 42.1633C35.9272 43.1913 35.5214 44.1765 34.8002 44.9024C34.0791 45.6283 33.1018 46.0354 32.0834 46.0354C31.065 46.0354 30.0877 45.6283 29.3666 44.9024C28.6454 44.1765 28.2397 43.1913 28.2397 42.1633C28.2397 41.1353 28.6454 40.15 29.3666 39.4241ZM68.4603 39.4241C69.1814 38.6983 70.1588 38.2911 71.1771 38.2911C72.1955 38.2911 73.1728 38.6983 73.8939 39.4241C74.6151 40.15 75.0209 41.1353 75.0209 42.1633C75.0209 43.1913 74.6151 44.1765 73.8939 44.9024C73.1728 45.6283 72.1955 46.0354 71.1771 46.0354C70.1588 46.0354 69.1814 45.6283 68.4603 44.9024C67.7391 44.1765 67.3334 43.1913 67.3334 42.1633C67.3334 41.1353 67.7391 40.15 68.4603 39.4241Z" fill="#F3A31B" stroke="white"/>
</svg>
